<?xml version="1.0" encoding="UTF-8"?>
<svg width="176px" height="176px" viewBox="0 0 176 176" version="1.1" xmlns="http://www.w3.org/2000/svg" xmlns:xlink="http://www.w3.org/1999/xlink">
    <!-- Generator: Sketch 52.2 (67145) - http://www.bohemiancoding.com/sketch -->
    <title>Group 8</title>
    <desc>Created with Sketch.</desc>
    <defs>
        <rect id="path-1" x="0" y="0" width="176" height="176"></rect>
        <polygon id="path-3" points="0.315662791 0.159146341 59.7205814 0.159146341 59.7205814 57.7207512 0.315662791 57.7207512"></polygon>
        <polygon id="path-5" points="0.212354737 0.155675676 66.7175421 0.155675676 66.7175421 63.9762681 0.212354737 63.9762681"></polygon>
        <polygon id="path-7" points="0.0712434629 0.283594558 98.7197915 0.283594558 98.7197915 103.805442 0.0712434629 103.805442"></polygon>
        <polygon id="path-9" points="0.164049145 0.118785417 82.7158846 0.118785417 82.7158846 66.8080729 0.164049145 66.8080729"></polygon>
        <polygon id="path-11" points="0.285094937 0.212670568 54.7211709 0.212670568 54.7211709 34.9747344 0.285094937 34.9747344"></polygon>
        <polygon id="path-13" points="0.0220259259 0.2347875 37.7181667 0.2347875 37.7181667 11.6636625 0.0220259259 11.6636625"></polygon>
        <polygon id="path-15" points="0.336928571 0.272612 29.7139286 0.272612 29.7139286 16.785052 0.336928571 16.785052"></polygon>
        <polygon id="path-17" points="0.0700465116 0.279955844 44.7205814 0.279955844 44.7205814 25.8142857 0.0700465116 25.8142857"></polygon>
        <polygon id="path-19" points="0.327642187 0.07348 22.7121406 0.07348 22.7121406 1.92388 0.327642187 1.92388"></polygon>
        <polygon id="path-21" points="0.161 0.159230769 10.733 0.159230769 10.733 45.7949108 0.161 45.7949108"></polygon>
        <polygon id="path-23" points="0.316941176 0.16254321 35.6657784 0.16254321 35.6657784 28.8030864 0.316941176 28.8030864"></polygon>
        <polygon id="path-25" points="0.186124756 0.167386607 39.7687368 0.167386607 39.7687368 38.8084821 0.186124756 38.8084821"></polygon>
        <polygon id="path-27" points="0.0748162393 0.217054839 40.9083632 0.217054839 40.9083632 21.8048387 0.0748162393 21.8048387"></polygon>
        <polygon id="path-29" points="0.00526451613 0.257083333 31.7705978 0.257083333 31.7705978 4.77083333 0.00526451613 4.77083333"></polygon>
        <polygon id="path-31" points="0.29134918 0.205927027 41.991841 0.205927027 41.991841 38.8067568 0.29134918 38.8067568"></polygon>
        <polygon id="path-33" points="0.26088567 0.156521739 112.990531 0.156521739 112.990531 55.8592348 0.26088567 55.8592348"></polygon>
        <polygon id="path-35" points="0.325400743 0.156521739 93.9906349 0.156521739 93.9906349 55.8592696 0.325400743 55.8592696"></polygon>
        <polygon id="path-37" points="0.340655 0.15704698 55.71965 0.15704698 55.71965 51.8350658 0.340655 51.8350658"></polygon>
        <polygon id="path-39" points="0.330510526 0.18 6.94403684 0.18 6.94403684 1.96852 0.330510526 1.96852"></polygon>
        <polygon id="path-41" points="0.112523077 0.158108108 22.8152923 0.158108108 22.8152923 12.8943838 0.112523077 12.8943838"></polygon>
        <polygon id="path-43" points="0 175 262 175 262 0 0 0"></polygon>
    </defs>
    <g id="Blog-Images" stroke="none" stroke-width="1" fill="none" fill-rule="evenodd">
        <g id="Group-8">
            <mask id="mask-2" fill="white">
                <use xlink:href="#path-1"></use>
            </mask>
            <use id="Rectangle" fill="#D8D8D8" xlink:href="#path-1"></use>
            <g id="Group-129" mask="url(#mask-2)">
                <g transform="translate(-87.000000, 0.000000)">
                    <g id="Group-3" stroke="none" stroke-width="1" fill="none" fill-rule="evenodd" transform="translate(203.000000, 0.000000)">
                        <mask id="mask-4" fill="white">
                            <use xlink:href="#path-3"></use>
                        </mask>
                        <g id="Clip-2"></g>
                        <path d="M0.315662791,-0.42424878 L4.52543023,-0.42424878 C4.52543023,-0.42424878 18.9261279,20.612422 35.9727558,34.806861 C54.2284535,47.998678 86.4739186,52.5279829 86.4739186,52.5279829 L86.4739186,57.7207512 C86.4739186,57.7207512 52.0572907,54.4419829 31.8470581,38.1942024 C11.6368256,21.946422 0.315662791,-0.42424878 0.315662791,-0.42424878" id="Fill-1" fill="#6EE4FF" mask="url(#mask-4)"></path>
                    </g>
                    <g id="Group-6" stroke="none" stroke-width="1" fill="none" fill-rule="evenodd" transform="translate(196.000000, 0.000000)">
                        <mask id="mask-6" fill="white">
                            <use xlink:href="#path-5"></use>
                        </mask>
                        <g id="Clip-5"></g>
                        <polygon id="Fill-4" fill="#8DE260" mask="url(#mask-6)" points="0.212354737 -0.414996757 6.66657053 -0.414996757 20.9932863 19.3758789 38.4612442 36.91776 79.4811126 53.4110789 93.7619863 56.4619762 93.7619863 63.9762681 79.3640389 62.2368519 40.6422705 61.9711654 38.5141389 59.5703005 29.4162442 35.6910357"></polygon>
                    </g>
                    <path d="M167,79.0966613 L170.374808,77.3166359 L174.488118,82.4145175 L176.649799,85.6404231 L217.516923,48 L220.680981,51.6644927 L215.777093,57.2137999 C215.777093,57.2137999 220.627856,61.4018907 220.997281,62.9199435 C221.366357,64.4383433 184.032366,95.7969772 184.032366,95.7969772 C184.032366,95.7969772 182.476725,96.5822008 180.77604,95.064148 C179.075704,93.5457482 167,79.0966613 167,79.0966613" id="Fill-7" stroke="none" fill="#8DE260" fill-rule="evenodd"></path>
                    <g id="Group-11" stroke="none" stroke-width="1" fill="none" fill-rule="evenodd" transform="translate(164.000000, 72.000000)">
                        <mask id="mask-8" fill="white">
                            <use xlink:href="#path-7"></use>
                        </mask>
                        <g id="Clip-10"></g>
                        <path d="M8.36011272,82.2366558 C8.36011272,82.2366558 1.73620813,70.8122204 0.583540283,68.2518395 C-0.569127562,65.6911048 0.583540283,63.3150231 0.583540283,63.3150231 L14.6887664,47.783649 L15.744883,43.9374177 L18.8054873,43.620819 C18.8054873,43.620819 64.2492859,0.817390476 64.4602293,0.924220408 C64.6715226,1.0306966 70.7409572,0.283594558 70.7409572,0.283594558 L70.2130739,17.4690639 L65.0937594,17.362234 C65.0937594,17.362234 63.5129078,17.1004653 63.4572859,18.3229959 C63.4020138,19.5455265 63.2459926,22.9662068 63.2459926,22.9662068 C63.2459926,22.9662068 62.9825756,24.6740707 62.5075155,25.1010367 C62.0324555,25.5280027 60.1850385,25.0476218 60.0797417,26.3285197 C59.9740951,27.6094177 61.2408053,28.3568735 61.2408053,28.3568735 L61.2932788,30.8118395 L111.381682,30.8118395 L111.381682,36.5760571 L77.3914484,36.2021524 L77.3914484,47.6237578 C77.3914484,47.783649 77.5786039,49.4363293 76.1128442,49.997717 C74.6467346,50.5591048 73.1690809,49.1183156 73.1690809,49.1183156 L69.2104802,39.244683 L40.0757947,50.5591048 L41.6590951,55.4693905 C41.6590951,55.4693905 34.2701269,58.5649823 32.8981198,59.5253905 C31.5257629,60.4861524 30.1002329,66.5170912 29.3089325,67.2645469 C28.5172823,68.0112952 17.6926993,69.3459619 17.6926993,69.3459619 L49.1379678,113.767404 L43.2280527,116.542152 L43.3336993,113.767404 L19.4652541,75.8969007 L8.36011272,82.2366558 Z" id="Fill-9" fill="#8DE260" mask="url(#mask-8)"></path>
                    </g>
                    <path d="M182.073723,8 L205.506111,8 C205.506111,8 226.865602,34.587485 226.548418,35.2957078 C226.231935,36.0039307 235,59.5205784 235,59.5205784 C235,59.5205784 213.660465,34.9514231 212.709614,33.7602892 C211.758763,32.5688043 208.695454,32.1452042 206.582646,33.3103676 C204.469838,34.4751801 173.517114,64.6567731 173.517114,64.6567731 L151.649289,78 L132,57.2435964 C132,57.2435964 170.674013,21.0870313 170.877767,20.8968149 C171.08117,20.7065984 170.347727,18.3780263 170.347727,18.3780263 L182.073723,8 Z" id="Fill-12" stroke="none" fill="#EFF2F4" fill-rule="evenodd"></path>
                    <path d="M118,118.333333 L133.481367,104 C133.481367,104 158.172411,130.057026 158.569172,131.060434 C158.965932,132.064196 159.297793,133.214141 158.569172,133.870898 C157.840199,134.52801 144.000599,147 144.000599,147 L118,118.333333 Z" id="Fill-14" stroke="none" fill="#EFF2F4" fill-rule="evenodd"></path>
                    <path d="M155,86.8592759 L157.017596,85.105658 L166.309872,79.6320737 C166.309872,79.6320737 179.637339,93.3954562 181.017948,94.9363436 C182.398557,96.4775832 184.468942,95.3614524 184.468942,95.3614524 L218.132852,65.6034824 C218.132852,65.6034824 219.964983,64.5176411 218.610769,63.1060121 C217.256555,61.6943831 215.531058,59.917872 214.867324,59.120837 C214.20359,58.3234498 214.867324,56.7825623 214.867324,56.7825623 L220.256731,52 L233,66.5068827 L182.451346,113.056827 C182.451346,113.056827 181.495513,114.650897 179.955833,113.694315 C178.415802,112.738084 155,86.8592759 155,86.8592759" id="Fill-16" stroke="none" fill="#EFF2F4" fill-rule="evenodd"></path>
                    <path d="M170,77.2210844 C170.157499,77.1687428 174.10091,82.3474206 174.10091,82.3474206 C174.10091,82.3474206 174.416257,85.1183849 175.572763,85.8026641 C176.729269,86.4872922 177.938391,85.1707265 177.938391,85.1707265 L217,47.7388064 L210.84881,41 L170,77.2210844 Z" id="Fill-18" stroke="none" fill="#EFF2F4" fill-rule="evenodd"></path>
                    <path d="M164.414143,139.999784 C164.534222,140.039424 161.856467,134.601082 161.856467,134.601082 L162.775422,131.822451 L161.856467,129.24237 L136,102.289899 L152.225099,88 C152.225099,88 174.804832,111.975291 176.683004,113.999717 C178.561528,116.024143 180,115.904873 180,115.904873 L179.320849,119.834806 C179.320849,119.834806 165.133555,134.442173 164.693856,135.593475 C164.254509,136.744777 164.414143,139.999784 164.414143,139.999784" id="Fill-20" stroke="none" fill="#EFF2F4" fill-rule="evenodd"></path>
                    <g id="Group-24" stroke="none" stroke-width="1" fill="none" fill-rule="evenodd" transform="translate(180.000000, 109.000000)">
                        <mask id="mask-10" fill="white">
                            <use xlink:href="#path-9"></use>
                        </mask>
                        <g id="Clip-23"></g>
                        <path d="M32.442891,76.6352281 L0.164049145,32.709051 C0.164049145,32.709051 10.8926859,31.7218479 11.9578526,30.4453583 C13.0230192,29.1685198 15.3434722,22.5477333 15.3434722,22.5477333 L24.5288056,19.0204625 C24.5288056,19.0204625 22.2984466,13.965801 22.5626987,13.965801 C22.8262415,13.965801 52.902391,2.43551979 52.9555962,2.59359792 C53.009156,2.75132708 56.8087115,12.860301 56.8087115,12.860301 C56.8087115,12.860301 57.9629081,13.9350927 59.4998269,13.8122594 C61.036391,13.689426 61.0353269,12.2562542 61.0353269,12.2562542 L61.0903056,0.118785417 L95.5544594,0.487634375 L95.5544594,14.1238792 C95.5544594,14.1238792 67.8062115,14.0450146 59.3238953,15.2293792 C50.8419338,16.4140927 25.8766688,27.5493531 25.8766688,27.5493531 C25.8766688,27.5493531 23.5359979,24.1138583 22.8798013,23.1266552 C22.2236047,22.139801 18.8897714,22.2975302 18.5219466,23.7586188 C18.1541218,25.2197073 19.2061645,25.548775 19.2061645,25.548775 L20.7977073,25.3380042 L43.021844,71.561025 L32.442891,76.6352281 Z" id="Fill-22" fill="#EFF2F4" mask="url(#mask-10)"></path>
                    </g>
                    <g id="Group-27" stroke="none" stroke-width="1" fill="none" fill-rule="evenodd" transform="translate(208.000000, 124.000000)">
                        <mask id="mask-12" fill="white">
                            <use xlink:href="#path-11"></use>
                        </mask>
                        <g id="Clip-26"></g>
                        <path d="M0.285094937,14.0884844 C0.515189873,14.1431719 9.33189873,34.9747344 9.33189873,34.9747344 C9.33189873,34.9747344 30.9242722,25.9148385 32.6049051,25.0897865 C34.285538,24.2643698 45.3669937,22.5435365 47.2578797,22.5592135 C49.1491139,22.5748906 67.3206962,22.7247344 67.3206962,22.7247344 L67.3206962,0.501557292 C67.3206962,0.501557292 42.215981,-0.653807292 31.6068987,1.65655729 C20.9978165,3.96692187 0.285094937,14.0884844 0.285094937,14.0884844" id="Fill-25" fill="#EFF2F4" mask="url(#mask-12)"></path>
                    </g>
                    <g id="Group-30" stroke="none" stroke-width="1" fill="none" fill-rule="evenodd" transform="translate(225.000000, 92.000000)">
                        <mask id="mask-14" fill="white">
                            <use xlink:href="#path-13"></use>
                        </mask>
                        <g id="Clip-29"></g>
                        <path d="M4.8526,0.2347875 C4.8526,0.2347875 4.58695185,3.4597875 4.58695185,4.7044125 C4.58695185,5.9490375 3.46419259,7.7205375 2.78195185,7.9860375 C2.10041481,8.2515375 0.0220259259,9.0607875 0.0220259259,9.0607875 L0.0748037037,11.6636625 L50.4536556,11.6636625 L50.4536556,0.2347875 L4.8526,0.2347875 Z" id="Fill-28" fill="#EFF2F4" mask="url(#mask-14)"></path>
                    </g>
                    <g id="Group-33" stroke="none" stroke-width="1" fill="none" fill-rule="evenodd" transform="translate(233.000000, 74.000000)">
                        <mask id="mask-16" fill="white">
                            <use xlink:href="#path-15"></use>
                        </mask>
                        <g id="Clip-32"></g>
                        <polygon id="Fill-31" fill="#EFF2F4" mask="url(#mask-16)" points="1.14978571 0.272612 6.26871429 0.272612 7.56192857 1.298732 42.6408571 1.298732 42.6408571 16.687812 0.336928571 16.785052"></polygon>
                    </g>
                    <g id="Group-36" stroke="none" stroke-width="1" fill="none" fill-rule="evenodd" transform="translate(218.000000, 150.000000)">
                        <mask id="mask-18" fill="white">
                            <use xlink:href="#path-17"></use>
                        </mask>
                        <g id="Clip-35"></g>
                        <path d="M0.0700465116,11.3542675 C0.427255814,12.1454104 8.17074419,29.0585792 8.17074419,29.0585792 L23.2202791,23.6083714 L38.6385349,20.857774 L55.8979535,20.2972545 L55.8979535,0.279955844 L36.3756279,0.279955844 L23.7578372,2.01148831 L0.0700465116,11.3542675 Z" id="Fill-34" fill="#EFF2F4" mask="url(#mask-18)"></path>
                    </g>
                    <polygon id="Fill-37" stroke="none" fill="#EFF2F4" fill-rule="evenodd" points="232 70 237 70 234.454321 68"></polygon>
                    <g id="Group-41" stroke="none" stroke-width="1" fill="none" fill-rule="evenodd" transform="translate(240.000000, 68.000000)">
                        <mask id="mask-20" fill="white">
                            <use xlink:href="#path-19"></use>
                        </mask>
                        <g id="Clip-40"></g>
                        <polygon id="Fill-39" fill="#EFF2F4" mask="url(#mask-20)" points="0.327642187 0.07348 1.72309531 1.60188 34.5164234 1.92388 34.5164234 0.07348"></polygon>
                    </g>
                    <g id="Group-44" stroke="none" stroke-width="1" fill="none" fill-rule="evenodd" transform="translate(252.000000, 0.000000)">
                        <mask id="mask-22" fill="white">
                            <use xlink:href="#path-21"></use>
                        </mask>
                        <g id="Clip-43"></g>
                        <polygon id="Fill-42" fill="#EFF2F4" mask="url(#mask-22)" points="0.161 -0.424473846 18.598 -0.424473846 36.2973333 2.59524923 36.2973333 45.7949108 31.9393333 42.9482185"></polygon>
                    </g>
                    <g id="Group-47" stroke="none" stroke-width="1" fill="none" fill-rule="evenodd" transform="translate(172.000000, 147.000000)">
                        <mask id="mask-24" fill="white">
                            <use xlink:href="#path-23"></use>
                        </mask>
                        <g id="Clip-46"></g>
                        <path d="M23.2147059,47.9767407 C23.2147059,47.9767407 35.1603529,41.8520123 35.4956471,41.6937654 C35.8305882,41.5362346 35.5676471,38.4715432 35.5676471,38.4715432 L11.6978824,0.16254321 L0.316941176,6.97324691 L23.2147059,47.9767407 Z" id="Fill-45" fill="#EFF2F4" mask="url(#mask-24)"></path>
                    </g>
                    <path d="M117.561438,119 C117.561438,119 143.070864,147.762843 142.999852,147.618399 C142.92884,147.473954 127.509425,162 127.509425,162 L102,133.96477 L117.561438,119 Z" id="Fill-48" stroke="none" fill="#EFF2F4" fill-rule="evenodd"></path>
                    <g id="Group-52" stroke="none" stroke-width="1" fill="none" fill-rule="evenodd" transform="translate(128.000000, 137.000000)">
                        <mask id="mask-26" fill="white">
                            <use xlink:href="#path-25"></use>
                        </mask>
                        <g id="Clip-51"></g>
                        <path d="M1.5894386,27.7612795 L32.2880351,0.167386607 L39.7687368,16.2757795 L25.3013684,27.7612795 L12.034,34.6949223 L9.98733333,35.955458 L8.14522807,39.1771366 L8.14522807,40.3680295 L7.6585614,41.6285652 L0.459964912,31.1929313 C0.459964912,31.1929313 -0.156175439,29.6019402 0.459964912,28.9521723 C1.07645614,28.3024045 1.5894386,27.7612795 1.5894386,27.7612795" id="Fill-50" fill="#EFF2F4" mask="url(#mask-26)"></path>
                    </g>
                    <g id="Group-55" stroke="none" stroke-width="1" fill="none" fill-rule="evenodd" transform="translate(136.000000, 154.000000)">
                        <mask id="mask-28" fill="white">
                            <use xlink:href="#path-27"></use>
                        </mask>
                        <g id="Clip-54"></g>
                        <polygon id="Fill-53" fill="#EFF2F4" mask="url(#mask-28)" points="0.0748162393 25.9098613 5.59755128 35.704829 24.3632863 25.0532806 40.9083632 15.4187 32.239141 0.217054839 18.3695769 11.350829 3.53563675 19.3797645 1.36824359 22.6446355 1.68573077 24.0363129"></polygon>
                    </g>
                    <g id="Group-58" stroke="none" stroke-width="1" fill="none" fill-rule="evenodd" transform="translate(161.000000, 171.000000)">
                        <mask id="mask-30" fill="white">
                            <use xlink:href="#path-29"></use>
                        </mask>
                        <g id="Clip-57"></g>
                        <polygon id="Fill-56" fill="#EFF2F4" mask="url(#mask-30)" points="0.00526451613 13.61375 13.3447914 41.70875 31.7705978 29.2008333 17.9121892 0.257083333"></polygon>
                    </g>
                    <g id="Group-61" stroke="none" stroke-width="1" fill="none" fill-rule="evenodd" transform="translate(88.000000, 137.000000)">
                        <mask id="mask-32" fill="white">
                            <use xlink:href="#path-31"></use>
                        </mask>
                        <g id="Clip-60"></g>
                        <path d="M0.29134918,11.3890892 C0.446955738,11.2829811 13.118218,0.205927027 13.118218,0.205927027 L38.2531525,28.0311973 L37.7336607,30.4692243 L37.8892672,32.4831703 L41.991841,38.2073865 L23.2450377,50.5032784 L0.29134918,11.3890892 Z" id="Fill-59" fill="#EFF2F4" mask="url(#mask-32)"></path>
                    </g>
                    <polygon id="Fill-62" stroke="none" fill="#EFF2F4" fill-rule="evenodd" points="79 112.869857 112.833609 82 128 101.099749 91.5496226 135 89.3640162 135"></polygon>
                    <g id="Group-66" stroke="none" stroke-width="1" fill="none" fill-rule="evenodd" transform="translate(93.000000, 0.000000)">
                        <mask id="mask-34" fill="white">
                            <use xlink:href="#path-33"></use>
                        </mask>
                        <g id="Clip-65"></g>
                        <path d="M38.642515,55.8592348 L76.7984963,20.110713 L78.1214059,20.3722783 L90.1800196,9.61714783 L112.990531,8.83245217 L104.411331,-0.417286957 L54.3540913,-0.417286957 L27.6614495,-0.417286957 C27.6614495,-0.417286957 31.0187112,10.0289739 31.5956801,11.2728 C32.1730009,12.5162783 33.3966396,14.1642783 31.5555492,15.0039304 C29.7148109,15.8432348 28.6890103,12.5552348 28.6890103,12.5552348 L24.2380072,-0.417286957 L8.11984206,-0.417286957 L0.26088567,4.0901913 L15.2001193,28.4355826 L38.642515,55.8592348 Z" id="Fill-64" fill="#EFF2F4" mask="url(#mask-34)"></path>
                    </g>
                    <g id="Group-69" stroke="none" stroke-width="1" fill="none" fill-rule="evenodd" transform="translate(111.000000, 0.000000)">
                        <mask id="mask-36" fill="white">
                            <use xlink:href="#path-35"></use>
                        </mask>
                        <g id="Clip-68"></g>
                        <path d="M85.4743747,-0.417252174 L38.657832,-0.417252174 C25.8095346,9.99735652 13.0206424,20.5608348 0.642694424,32.2832696 C0.547296654,32.3309217 0.439668401,32.3897043 0.325400743,32.4516174 L20.188055,55.8592696 C20.188055,55.8592696 57.3225978,20.6818783 57.8058766,20.3406609 C58.2891554,19.9997913 59.377319,20.372313 59.377319,20.372313 L71.3474677,9.61718261 L93.9906349,8.83248696 L85.4743747,-0.417252174 Z" id="Fill-67" fill="#E2E2E2" mask="url(#mask-36)"></path>
                    </g>
                    <polygon id="Fill-70" stroke="none" fill="#EFF2F4" fill-rule="evenodd" points="113 80.7858538 129.229034 99 149 81.3750222 132.229531 63"></polygon>
                    <path d="M97,61.1907663 L110.059556,76 C110.059556,76 129.154957,58.7570583 128.99905,58.7570583 C128.842799,58.7570583 115.93915,44 115.93915,44 L97,61.1907663 Z" id="Fill-72" stroke="none" fill="#EFF2F4" fill-rule="evenodd"></path>
                    <g id="Group-76" stroke="none" stroke-width="1" fill="none" fill-rule="evenodd" transform="translate(207.000000, 0.000000)">
                        <mask id="mask-38" fill="white">
                            <use xlink:href="#path-37"></use>
                        </mask>
                        <g id="Clip-75"></g>
                        <path d="M0.340655,-0.418652349 L40.810105,-0.20227651 L68.388005,34.9186631 L76.508005,45.166851 L82.562305,48.4658846 L82.562305,51.8350658 L68.388005,49.1429315 C68.388005,49.1429315 43.225455,45.272596 29.337455,32.9513879 C15.449455,20.6301799 0.340655,-0.418652349 0.340655,-0.418652349" id="Fill-74" fill="#E3E4E5" mask="url(#mask-38)"></path>
                    </g>
                    <polygon id="Fill-77" stroke="none" fill="#EFF2F4" fill-rule="evenodd" points="78 79.1183749 96.181873 62 109 77.4246194 86.2901499 99"></polygon>
                    <polygon id="Fill-79" stroke="none" fill="#EFF2F4" fill-rule="evenodd" points="97.3037858 58 115 41.8568521 105.500036 29.6425947 91.5001065 6 70 19.2857084 76.7859933 27.3569272 79.7144684 30.4285148 81.5714895 40.6429908 88.2857447 51.2857631 89.9286171 51.6426766"></polygon>
                    <polygon id="Fill-81" stroke="none" fill="#EFF2F4" fill-rule="evenodd" points="42 36.0123866 67.4636994 21 77.0306029 31.7130712 78.4697513 41.2981372 85.9505333 53.0684286 85.9505333 54.8303454 93 61.5966248 67.4998212 84.2205062 64.8743768 87.8855596 59.4793585 90"></polygon>
                    <g id="Group-85" stroke="none" stroke-width="1" fill="none" fill-rule="evenodd" transform="translate(90.000000, 0.000000)">
                        <mask id="mask-40" fill="white">
                            <use xlink:href="#path-39"></use>
                        </mask>
                        <g id="Clip-84"></g>
                        <path d="M0.330510526,-0.41948 C0.404563158,-0.41948 1.96077368,1.96852 1.96077368,1.96852 L6.94403684,-0.47988 L0.330510526,-0.41948 Z" id="Fill-83" fill="#EFF2F4" mask="url(#mask-40)"></path>
                    </g>
                    <g id="Group-88" stroke="none" stroke-width="1" fill="none" fill-rule="evenodd" transform="translate(67.000000, 0.000000)">
                        <mask id="mask-42" fill="white">
                            <use xlink:href="#path-41"></use>
                        </mask>
                        <g id="Clip-87"></g>
                        <polygon id="Fill-86" fill="#EFF2F4" mask="url(#mask-42)" points="0.112523077 -0.421481081 20.8224308 -0.421481081 22.8152923 3.35449189 6.94493846 12.8943838"></polygon>
                    </g>
                    <path d="M146,152.375672 L151.992757,159 C151.992757,159 162.842452,148.602795 162.997228,148.602795 C163.152346,148.602795 156.745941,142 156.745941,142 L146,152.375672 Z" id="Fill-101" stroke="none" fill="#C5C7C9" fill-rule="evenodd"></path>
                    <polygon id="Fill-103" stroke="none" fill="#C5C7C9" fill-rule="evenodd" points="126 70.122428 131.726072 65 139 72.9163237 133.46711 78"></polygon>
                    <polygon id="Fill-105" stroke="none" fill="#C5C7C9" fill-rule="evenodd" points="178 18.2592871 181.886842 22 188 15.7037279 184.051851 12"></polygon>
                    <polygon id="Fill-107" stroke="none" fill="#C5C7C9" fill-rule="evenodd" points="195 87.196639 198.379584 91 203 86.8029747 199.491871 83"></polygon>
                    <mask id="mask-44" fill="white">
                        <use xlink:href="#path-43"></use>
                    </mask>
                    <g id="Clip-110" stroke="none" fill="none"></g>
                    <polygon id="Fill-109" stroke="none" fill="#C5C7C9" fill-rule="evenodd" mask="url(#mask-44)" points="259 101 262 101 262 93 259 93"></polygon>
                    <path d="M194,146.288875 C194,146.288875 199.236164,158.150895 199.395459,157.998545 C199.554754,157.845496 209,154.083907 209,154.083907 L203.409059,142 L194,146.288875 Z" id="Fill-111" stroke="none" fill="#C5C7C9" fill-rule="evenodd" mask="url(#mask-44)"></path>
                    <path d="M130,47.3774959 C130.209292,47.5793093 132.724507,50 132.724507,50 L137,45.8845762 L134.003228,43 L130,47.3774959 Z" id="Fill-112" stroke="none" fill="#C5C7C9" fill-rule="evenodd" mask="url(#mask-44)"></path>
                    <path d="M89,104.230665 C89.2195015,104.230665 112.024399,85 112.024399,85 L118,91.2563318 L95.4687527,111 L89,104.230665 Z" id="Fill-113" stroke="none" fill="#C5C7C9" fill-rule="evenodd" mask="url(#mask-44)"></path>
                    <polygon id="Fill-114" stroke="none" fill="#C5C7C9" fill-rule="evenodd" mask="url(#mask-44)" points="91 70.8196703 95.9020245 66 101 71.213186 98.1569233 73.9671436 97.0783804 72.9346133 94.9216196 75"></polygon>
                    <polygon id="Fill-115" stroke="none" fill="#C5C7C9" fill-rule="evenodd" mask="url(#mask-44)" points="111 50.5376456 116.38797 46 127 57.2526517 121.61203 62 120.05308 60.0591202 121.065183 59.3507216 119.916368 58.0392975 120.681882 57.5670318 119 55.626152 119.697339 55.0752913 118.138752 53.3705443 117.099089 54.2886455 115.485381 52.373848 114.719505 53.1344114 113.707765 51.9540949 113.023843 52.5835507"></polygon>
                    <path d="M104,151.277338 C104.155821,151.223024 109.033397,148 109.033397,148 L115,157.723024 L109.500172,161 L104,151.277338 Z" id="Fill-118" stroke="none" fill="#C5C7C9" fill-rule="evenodd" mask="url(#mask-44)"></path>
                    <polygon id="Fill-119" stroke="none" fill="#F7D2AD" fill-rule="evenodd" mask="url(#mask-44)" points="232 166.535447 235.736916 165 239 172.30592 235.5 174"></polygon>
                    <path d="M81.0004341,152.00214 C80.8948177,151.684433 100.097412,186.847085 100.097412,186.847085 L126,229 L114.921473,207.287777 L92.922843,170.748276 L81.0004341,152.00214 Z" id="Fill-120" stroke="none" fill="#E2E2E2" fill-rule="evenodd" mask="url(#mask-44)"></path>
                </g>
            </g>
        </g>
    </g>
</svg>